<?xml version="1.0" standalone="no"?>
<!DOCTYPE svg PUBLIC "-//W3C//DTD SVG 20010904//EN"
 "http://www.w3.org/TR/2001/REC-SVG-20010904/DTD/svg10.dtd">
<svg version="1.0" xmlns="http://www.w3.org/2000/svg"
 width="2717.000000pt" height="544.000000pt" viewBox="0 0 2717.000000 544.000000"
 preserveAspectRatio="xMidYMid meet">
<metadata>
Created by potrace 1.16, written by Peter Selinger 2001-2019
</metadata>
<g transform="translate(0.000000,544.000000) scale(0.100000,-0.100000)"
fill="#000000" stroke="none">
<path d="M14610 2720 l0 -2720 45 0 45 0 0 2720 0 2720 -45 0 -45 0 0 -2720z"/>
<path d="M2505 4739 c-448 -60 -984 -384 -1495 -906 -325 -331 -542 -626 -721
-983 -139 -277 -224 -538 -263 -805 -47 -318 -22 -572 74 -774 190 -396 580
-571 1130 -506 180 21 297 45 735 150 661 159 881 196 1190 198 353 2 589 -69
788 -236 36 -31 135 -149 164 -196 1 -1 29 26 63 63 72 77 156 132 260 172 73
28 80 28 265 29 203 0 285 -11 458 -61 150 -44 311 -116 435 -196 34 -22 65
-38 68 -35 14 14 -158 181 -299 291 -554 432 -988 551 -1707 471 -288 -32
-546 -85 -1160 -235 -651 -160 -845 -194 -1100 -194 -233 0 -380 36 -518 126
-339 221 -383 709 -120 1358 264 652 830 1395 1379 1809 264 200 526 302 646
252 53 -22 84 -91 64 -143 -8 -21 -18 -27 -58 -32 -72 -11 -127 -41 -182 -102
-61 -67 -85 -132 -79 -216 4 -53 9 -65 36 -89 40 -36 105 -39 169 -8 91 44
215 223 258 373 48 166 -26 332 -180 402 -61 28 -190 38 -300 23z"/>
<path d="M12955 4663 c-285 -265 -593 -453 -913 -557 -161 -52 -267 -70 -422
-70 l-135 -1 -102 -110 c-125 -136 -207 -234 -200 -241 29 -29 413 -29 546 1
453 101 891 413 1193 850 60 86 123 194 117 199 -2 2 -40 -30 -84 -71z"/>
<path d="M8743 4719 c-131 -17 -324 -84 -513 -179 -611 -306 -1207 -864 -1682
-1574 -297 -442 -469 -813 -545 -1174 -34 -165 -39 -409 -10 -537 60 -260 230
-443 459 -491 209 -45 493 27 740 189 428 278 815 840 903 1313 23 122 17 269
-15 342 -27 63 -101 133 -158 150 -212 64 -579 -133 -781 -418 -115 -161 -250
-492 -286 -694 -26 -151 -28 -149 73 -56 115 107 257 212 372 274 l93 51 24
85 c51 178 143 350 240 446 57 57 103 85 170 103 193 52 189 -257 -8 -651
-163 -325 -525 -704 -766 -799 -84 -34 -236 -34 -310 0 -140 63 -216 235 -198
450 7 97 70 356 121 502 106 306 271 617 522 984 200 293 375 508 611 749 459
467 911 766 1161 766 79 0 77 -12 -17 -76 -196 -132 -404 -316 -515 -453 -339
-420 -420 -830 -179 -902 58 -17 176 -7 246 22 220 91 487 387 651 724 93 192
139 371 132 522 l-3 82 48 11 c216 46 455 -46 929 -357 249 -164 422 -267 436
-261 5 2 79 76 165 164 l157 162 -102 55 c-57 30 -188 105 -293 167 -382 227
-529 286 -763 310 -176 18 -415 -13 -606 -80 -59 -20 -60 -20 -80 -1 -33 31
-125 69 -196 80 -73 12 -136 12 -227 0z m386 -430 c-34 -275 -194 -582 -423
-813 -233 -235 -418 -297 -457 -154 -40 149 192 540 477 807 110 102 205 175
314 241 l85 51 7 -27 c4 -15 3 -62 -3 -105z"/>
<path d="M11829 4671 c-127 -41 -302 -150 -506 -316 -130 -106 -526 -502 -689
-689 -411 -472 -635 -811 -1036 -1571 l-63 -120 -55 -18 c-60 -20 -150 -34
-150 -23 0 4 11 28 24 54 38 75 95 235 117 330 16 67 20 111 17 193 -3 97 -6
110 -33 155 -44 71 -117 106 -218 106 -92 0 -167 -21 -277 -78 -279 -144 -639
-512 -866 -884 -149 -245 -244 -527 -244 -724 0 -166 39 -253 140 -310 49 -28
63 -31 135 -30 158 1 332 98 582 323 180 163 295 306 460 576 47 77 87 142 89
144 1 1 38 7 81 12 43 5 90 11 105 14 l26 6 -60 -173 c-170 -494 -171 -765 -2
-864 40 -23 62 -29 133 -32 84 -4 88 -3 166 37 97 48 212 140 320 252 l81 84
0 -85 c0 -143 39 -221 132 -267 75 -37 161 -36 250 0 83 34 208 118 302 203
l75 68 5 -89 c8 -122 33 -166 113 -200 225 -94 660 255 1100 884 48 68 87 127
87 132 0 5 -33 9 -74 9 l-75 0 -77 -107 c-225 -314 -450 -533 -547 -533 -29 0
-30 1 -25 45 4 27 21 72 45 113 22 37 216 365 432 730 215 364 394 669 398
677 4 13 -25 15 -206 15 l-211 0 -27 -42 c-15 -24 -28 -44 -29 -46 -1 -2 -22
17 -45 43 -79 85 -154 107 -279 81 -157 -33 -309 -128 -498 -311 -196 -189
-346 -377 -617 -776 -198 -292 -230 -334 -320 -427 -116 -121 -182 -149 -224
-96 -11 14 -24 42 -27 62 -19 99 74 406 211 698 l47 99 116 80 c135 93 324
239 432 334 270 238 647 622 850 866 107 129 238 298 245 317 5 12 -8 12 -75
4 l-80 -9 -77 -96 c-276 -345 -680 -759 -1006 -1029 -117 -97 -257 -198 -257
-185 0 15 148 282 267 481 211 354 482 743 702 1007 290 347 612 654 768 731
85 42 107 19 80 -83 -9 -35 -42 -116 -72 -180 -30 -64 -53 -119 -50 -122 3 -2
40 4 82 14 l76 19 28 63 c76 169 105 340 70 406 -34 64 -172 86 -292 48z
m-2527 -2118 c53 -48 66 -149 34 -273 -22 -82 -130 -308 -152 -317 -22 -8
-114 38 -163 83 -91 82 -121 215 -71 318 42 87 146 177 240 207 36 12 89 3
112 -18z m2356 -19 c12 -8 22 -23 22 -33 0 -17 -305 -533 -464 -786 -241 -380
-414 -575 -511 -575 -36 0 -75 42 -75 81 0 94 80 281 224 523 249 419 612 806
755 806 15 0 37 -7 49 -16z m-2865 -453 c45 -76 161 -175 301 -256 16 -9 11
-20 -41 -102 -114 -182 -190 -280 -303 -394 -125 -126 -209 -179 -281 -179
-77 0 -128 81 -114 179 12 81 64 222 131 351 59 114 267 430 283 430 4 0 14
-13 24 -29z"/>
<path d="M19360 4019 l0 -311 -52 47 c-108 97 -230 140 -398 139 -95 -1 -128
-5 -193 -27 -188 -61 -323 -202 -393 -407 -29 -84 -27 -310 3 -405 59 -186
202 -335 381 -397 58 -20 87 -23 207 -23 123 0 148 3 205 24 83 30 152 75 213
136 l47 48 0 -91 0 -92 105 0 105 0 0 835 0 835 -115 0 -115 0 0 -311z m-237
-367 c192 -90 286 -296 232 -507 -67 -258 -359 -388 -603 -269 -279 137 -305
567 -44 746 75 51 143 69 253 65 82 -3 106 -8 162 -35z"/>
<path d="M24622 4290 c-58 -36 -78 -116 -44 -179 48 -90 199 -95 252 -9 17 26
20 45 17 87 -3 47 -9 59 -40 88 -33 29 -43 33 -94 33 -41 0 -68 -6 -91 -20z"/>
<path d="M16300 3460 l0 -800 115 0 115 0 0 800 0 800 -115 0 -115 0 0 -800z"/>
<path d="M22838 4202 l-98 -46 0 -143 0 -143 -105 0 -105 0 0 -95 0 -95 105 0
104 0 3 -387 c3 -379 4 -389 26 -437 38 -84 85 -132 169 -173 l77 -38 150 0
c121 0 159 3 189 17 l37 17 0 102 c0 92 -2 101 -17 94 -139 -53 -283 -42 -350
27 -62 64 -63 73 -63 443 l0 335 210 0 210 0 0 95 0 95 -210 0 -210 0 0 190
c0 146 -3 190 -12 189 -7 0 -57 -22 -110 -47z"/>
<path d="M17446 3890 c-120 -22 -211 -65 -277 -131 l-39 -39 0 75 0 75 -105 0
-105 0 0 -605 0 -605 110 0 109 0 3 398 3 397 27 50 c66 126 206 194 373 183
93 -6 165 -38 215 -96 68 -76 70 -94 70 -539 l0 -393 110 0 111 0 -3 453 c-3
437 -4 454 -25 505 -49 119 -153 213 -281 252 -76 24 -222 33 -296 20z"/>
<path d="M25560 3889 c-91 -9 -148 -21 -232 -52 -72 -26 -178 -91 -178 -108 0
-15 108 -159 119 -159 5 0 20 9 34 20 107 85 341 126 479 86 102 -29 176 -104
197 -196 20 -86 32 -80 -156 -80 -192 0 -361 -14 -448 -36 -138 -36 -243 -112
-292 -212 -24 -50 -28 -69 -28 -147 0 -82 3 -97 33 -157 68 -139 227 -218 437
-218 173 0 329 55 424 149 l48 49 12 -34 c17 -48 57 -91 105 -116 45 -23 159
-35 220 -24 l36 7 0 94 0 94 -54 -6 c-49 -5 -57 -3 -80 20 l-26 26 0 273 c0
150 -5 305 -10 343 -38 268 -289 419 -640 384z m425 -711 c-16 -82 -37 -139
-67 -184 -86 -126 -305 -201 -468 -160 -117 30 -172 87 -172 177 0 69 31 112
107 149 82 41 136 47 388 49 l219 1 -7 -32z"/>
<path d="M21682 3874 c-145 -31 -252 -106 -303 -210 -28 -57 -33 -76 -32 -142
0 -92 16 -134 74 -197 76 -82 148 -109 429 -160 248 -44 267 -50 307 -90 66
-66 36 -153 -73 -206 -152 -75 -418 -39 -606 83 -33 22 -64 36 -68 31 -4 -4
-31 -44 -60 -87 l-53 -79 24 -19 c46 -36 205 -107 285 -127 264 -67 501 -44
657 63 204 139 210 426 11 542 -76 45 -135 62 -344 99 -273 49 -326 68 -350
125 -30 72 28 147 141 181 143 43 361 7 500 -82 l58 -38 56 77 c30 42 55 82
55 89 0 19 -126 89 -210 117 -41 14 -104 30 -140 35 -89 15 -281 12 -358 -5z"/>
<path d="M24155 3880 c-117 -21 -222 -74 -283 -145 l-32 -36 0 86 0 85 -105 0
-105 0 0 -605 0 -605 110 0 110 0 0 357 c0 402 4 434 68 518 79 101 231 157
379 138 l73 -9 0 103 c0 56 -4 104 -8 107 -17 10 -159 14 -207 6z"/>
<path d="M19932 3413 l3 -458 32 -67 c80 -170 235 -258 453 -258 156 0 281 42
370 126 l50 47 0 -72 0 -71 105 0 105 0 0 605 0 605 -110 0 -110 0 0 -378 c0
-300 -3 -389 -14 -426 -43 -141 -174 -228 -346 -230 -114 -1 -179 22 -241 84
-77 78 -79 88 -79 552 l0 398 -110 0 -111 0 3 -457z"/>
<path d="M24600 3265 l0 -605 110 0 110 0 0 605 0 605 -110 0 -110 0 0 -605z"/>
<path d="M2705 3759 c-185 -22 -416 -168 -670 -423 -214 -216 -392 -456 -514
-696 -105 -205 -152 -373 -153 -540 -1 -165 44 -263 151 -327 105 -63 214 -55
376 26 55 28 141 81 190 118 109 82 325 290 408 393 47 58 269 386 342 505 9
14 39 26 104 41 50 12 90 18 89 15 -2 -3 -40 -79 -85 -168 -95 -186 -137 -300
-160 -443 -39 -236 29 -405 196 -489 239 -121 527 -5 959 387 l80 72 -14 -46
c-7 -25 -18 -83 -24 -128 -19 -151 19 -259 103 -296 157 -69 366 5 587 207
l55 50 1 -71 c1 -120 48 -185 147 -206 103 -21 231 26 389 142 97 71 358 330
477 473 116 140 281 359 281 373 0 8 -23 12 -72 12 l-73 -1 -92 -112 c-133
-162 -267 -308 -348 -378 -69 -60 -150 -109 -179 -109 -29 0 -35 33 -17 86 9
28 209 370 444 761 235 391 427 714 427 717 0 3 -94 6 -209 6 l-210 0 -22 -31
-22 -31 -36 36 c-74 72 -159 91 -276 61 -171 -44 -349 -168 -570 -396 -141
-145 -225 -246 -415 -494 -210 -275 -316 -399 -466 -545 -212 -206 -382 -302
-484 -271 -167 50 -170 241 -10 579 161 337 382 632 612 816 140 112 232 142
292 95 23 -18 27 -28 24 -61 l-3 -40 -66 -17 c-80 -20 -130 -56 -173 -125 -46
-74 -56 -101 -56 -154 0 -102 93 -152 191 -101 145 74 282 354 249 512 -44
212 -294 281 -552 152 -131 -66 -232 -144 -467 -358 -78 -73 -177 -158 -220
-190 -75 -56 -211 -129 -263 -141 l-26 -6 35 82 c81 193 109 400 70 515 -42
120 -168 182 -332 162z m148 -227 c74 -70 59 -231 -43 -448 -20 -45 -42 -84
-48 -88 -16 -10 -134 31 -184 64 -138 91 -144 249 -14 388 47 50 126 99 180
113 44 10 77 2 109 -29z m2689 1 c10 -9 18 -21 18 -26 0 -22 -435 -750 -553
-927 -154 -230 -294 -392 -374 -433 -45 -24 -96 -22 -119 4 -93 103 212 643
666 1175 154 182 299 264 362 207z m-3105 -556 c54 -39 148 -88 206 -106 20
-7 37 -17 37 -22 0 -15 -135 -224 -212 -327 -134 -181 -298 -331 -399 -368
-56 -20 -98 -11 -134 26 -24 25 -30 41 -33 93 -10 157 93 388 312 705 l98 142
39 -54 c21 -30 60 -70 86 -89z"/>
<path d="M6288 3536 c-60 -96 -108 -177 -108 -180 0 -4 91 -5 202 -4 l201 3
94 150 c51 83 100 162 109 178 l15 27 -203 0 -203 0 -107 -174z"/>
<path d="M21232 2340 c-58 -36 -78 -116 -44 -179 48 -90 199 -95 252 -9 17 26
20 45 17 87 -3 47 -9 59 -40 88 -33 29 -43 33 -94 33 -41 0 -68 -6 -91 -20z"/>
<path d="M16290 1510 l0 -800 110 0 110 0 2 633 3 634 290 -616 291 -616 84 0
84 0 291 620 290 620 3 -638 2 -637 115 0 115 0 0 800 0 800 -154 0 -153 0
-156 -332 c-86 -183 -218 -467 -295 -630 l-139 -297 -294 629 -294 630 -152 0
-153 0 0 -800z"/>
<path d="M18875 1936 c-243 -47 -420 -215 -481 -456 -22 -86 -22 -254 1 -340
29 -112 72 -188 156 -272 87 -89 194 -147 314 -173 94 -20 287 -19 378 1 92
20 220 81 277 132 l44 39 -64 74 c-35 41 -66 76 -67 78 -2 2 -21 -11 -44 -29
-95 -76 -201 -110 -342 -110 -218 0 -376 110 -431 298 l-15 52 515 0 514 0 0
93 c0 185 -55 323 -180 448 -80 80 -158 127 -260 154 -81 22 -233 27 -315 11z
m229 -201 c81 -17 135 -47 194 -106 42 -43 94 -137 106 -191 l6 -28 -401 0
-401 0 6 33 c20 105 109 216 213 264 93 43 169 51 277 28z"/>
<path d="M22235 1940 c-276 -44 -481 -223 -540 -472 -19 -81 -19 -235 0 -317
23 -94 86 -208 153 -274 139 -138 292 -197 512 -197 128 0 227 19 315 60 65
31 155 96 155 113 0 9 -60 84 -116 146 -11 12 -19 9 -52 -18 -138 -109 -352
-130 -519 -50 -164 78 -262 267 -232 448 34 216 215 362 445 362 117 0 199
-29 297 -104 22 -17 42 -26 47 -21 29 31 120 148 120 155 0 14 -84 76 -146
107 -33 17 -89 38 -123 47 -77 20 -236 27 -316 15z"/>
<path d="M23460 1939 c-91 -9 -148 -21 -232 -52 -72 -26 -178 -91 -178 -108 0
-15 108 -159 119 -159 5 0 20 9 34 20 107 85 341 126 479 86 102 -29 176 -104
197 -196 20 -86 32 -80 -156 -80 -192 0 -361 -14 -448 -36 -138 -36 -243 -112
-292 -212 -24 -50 -28 -69 -28 -147 0 -82 3 -97 33 -157 68 -139 227 -218 437
-218 173 0 329 55 424 149 l48 49 12 -34 c17 -48 57 -91 105 -116 45 -23 159
-35 220 -24 l36 7 0 94 0 94 -54 -6 c-49 -5 -57 -3 -80 20 l-26 26 0 273 c0
150 -5 305 -10 343 -38 268 -289 419 -640 384z m425 -711 c-16 -82 -37 -139
-67 -184 -86 -126 -305 -201 -468 -160 -117 30 -172 87 -172 177 0 69 31 112
107 149 82 41 136 47 388 49 l219 1 -7 -32z"/>
<path d="M24996 1940 c-120 -22 -211 -65 -277 -131 l-39 -39 0 75 0 75 -105 0
-105 0 0 -605 0 -605 110 0 109 0 3 398 3 397 27 50 c66 126 206 194 373 183
93 -6 165 -38 215 -96 68 -76 70 -94 70 -539 l0 -393 110 0 111 0 -3 452 c-3
438 -4 455 -25 506 -49 119 -153 213 -281 252 -76 24 -222 33 -296 20z"/>
<path d="M26340 1939 c-91 -9 -148 -21 -232 -52 -72 -26 -178 -91 -178 -108 0
-15 108 -159 119 -159 5 0 20 9 34 20 107 85 341 126 479 86 102 -29 176 -104
197 -196 20 -86 32 -80 -156 -80 -192 0 -361 -14 -448 -36 -138 -36 -243 -112
-292 -212 -24 -50 -28 -69 -28 -147 0 -82 3 -97 33 -157 68 -139 227 -218 437
-218 173 0 329 55 424 149 l48 49 12 -34 c17 -48 57 -91 105 -116 45 -23 159
-35 220 -24 l36 7 0 94 0 94 -54 -6 c-49 -5 -57 -3 -80 20 l-26 26 0 273 c0
150 -5 305 -10 343 -38 268 -289 419 -640 384z m425 -711 c-16 -82 -37 -139
-67 -184 -86 -126 -305 -201 -468 -160 -117 30 -172 87 -172 177 0 69 31 112
107 149 82 41 136 47 388 49 l219 1 -7 -32z"/>
<path d="M19750 1914 c0 -5 415 -518 461 -569 18 -20 13 -26 -207 -290 -124
-149 -239 -287 -256 -307 l-30 -38 134 0 134 0 114 142 c63 78 148 182 188
230 l73 89 182 -231 181 -230 139 0 c106 0 136 3 131 12 -4 7 -113 143 -243
303 -129 159 -238 295 -242 301 -5 6 86 124 226 295 129 156 235 287 235 292
0 4 -58 7 -128 7 l-129 0 -169 -214 c-93 -118 -171 -215 -174 -215 -3 0 -81
96 -175 214 l-170 214 -137 0 c-76 1 -138 -2 -138 -5z"/>
<path d="M21210 1315 l0 -605 110 0 110 0 0 605 0 605 -110 0 -110 0 0 -605z"/>
</g>
</svg>
