<svg id="Layer_1" data-name="Layer 1" xmlns="http://www.w3.org/2000/svg" viewBox="0 0 100 100"><defs><style>.cls-1,.cls-6{fill:#fff;}.cls-2{fill:#003671;}.cls-3{fill:#dc2f34;}.cls-4{fill:#ebb300;}.cls-5{fill:#6b4200;}.cls-6{isolation:isolate;}</style></defs><title>logos_menu</title><g id="_Group_" data-name="&lt;Group&gt;"><g id="_Group_2" data-name="&lt;Group&gt;"><circle id="_Path_" data-name="&lt;Path&gt;" class="cls-1" cx="50" cy="50" r="48.67"/><circle id="_Path_2" data-name="&lt;Path&gt;" class="cls-2" cx="50" cy="50" r="31.51"/><g id="_Group_3" data-name="&lt;Group&gt;"><path id="_Compound_Path_" data-name="&lt;Compound Path&gt;" class="cls-2" d="M15.34,15.34A49,49,0,1,0,84.66,84.66,49,49,0,1,0,15.34,15.34ZM2.24,50a47.76,47.76,0,1,1,95.52,0A47.76,47.76,0,0,1,2.24,50Z"/></g><g id="_Group_4" data-name="&lt;Group&gt;"><path id="_Compound_Path_2" data-name="&lt;Compound Path&gt;" class="cls-2" d="M26.11,26.11A33.79,33.79,0,1,0,50,16.21,33.57,33.57,0,0,0,26.11,26.11ZM17.47,50A32.53,32.53,0,1,1,50,82.53,32.32,32.32,0,0,1,17.47,50Z"/></g><g id="_Group_5" data-name="&lt;Group&gt;"><polygon id="_Path_3" data-name="&lt;Path&gt;" class="cls-1" points="27.31 45.4 33.88 45.09 33.37 46.18 32.45 46.52 31.03 46.79 30.18 46.57 29.43 46.67 28.43 46.64 27.87 46.25 27.57 45.84 27.31 45.4"/><polygon id="_Path_4" data-name="&lt;Path&gt;" class="cls-1" points="40.2 47.72 22 46.78 21.13 47.57 22.2 48.58 39.81 49.36 40.2 47.72"/><polygon id="_Path_5" data-name="&lt;Path&gt;" class="cls-1" points="59.85 47.86 60.39 49.52 77.88 48.35 78.87 47.54 77.57 46.24 59.73 47.56 59.85 47.86"/><polygon id="_Path_6" data-name="&lt;Path&gt;" class="cls-1" points="65.39 45.1 71.52 45.1 71.25 45.85 69.92 46.24 68.08 46.47 67.11 46.24 65.7 46.16 65.39 45.1"/><path id="_Path_7" data-name="&lt;Path&gt;" class="cls-3" d="M58.93,45.08c0.09,0.08.26-.2,0.35-0.31a5.8,5.8,0,0,1,2.38-1.4l1.77-.85a0.82,0.82,0,0,0,.26-1.13,1,1,0,0,0-1-.69,1.56,1.56,0,0,1,1-1.09s0.13,2.52,1.56,3.22a1.17,1.17,0,0,1,0-.71,1.55,1.55,0,0,0,.64.54s-0.16-.88,1.11-1.07c0,0,1.74-.43,1.84.67a1.33,1.33,0,0,1-.79,1.62l-1.23.76s-0.78.64,0,.9a3.53,3.53,0,0,0,1.09-.3,0.37,0.37,0,0,0,.42.32,1.58,1.58,0,0,0,.9-0.4s0.33,0.7,1.11.07l0.93-.93s0.24,0,0-.89c0,0-.71-3,0.24-2.67a1.67,1.67,0,0,1,.73.44s-0.34-2.41-1.54-2.38a1.82,1.82,0,0,0-1.2.26,1,1,0,0,1-1.18-.26A6.16,6.16,0,0,1,67,36.61s-0.6-1.49.89-1.23a6.82,6.82,0,0,1-.65-1.15,3,3,0,0,1,1.13.39,10.37,10.37,0,0,0-2-3.11s1.15-4.87-2.17-5a20.38,20.38,0,0,0-7.75,1.13s-2.59.81-3.79-.37c0,0-.55-0.86.89-1.23A4.44,4.44,0,0,1,56,25.91s3.82,1,6-.42a3.85,3.85,0,0,1-1.52-.5,8.21,8.21,0,0,1,2.59-.29s-5.7-2.7-8.48-.47c0,0-4.29.13-3.77,3.17,0,0,.58,2.93,4.71,1.94,0,0,4.26-1,4.76-1.15,0,0,6.54-1.13,3.79,2.25a25.23,25.23,0,0,0-7.17,1,25.73,25.73,0,0,1-6,1.44,1.64,1.64,0,0,0,.31-1,3.12,3.12,0,0,1-2.17-.44,4.8,4.8,0,0,1,1-1.1A2.25,2.25,0,0,1,48.81,30a4.89,4.89,0,0,1,1.75-.71,4.53,4.53,0,0,0-2.49-1,4.41,4.41,0,0,0,1-.68,5.31,5.31,0,0,1-2.17-1.47s-1.28-1.62-2-1.41a2.12,2.12,0,0,0-2.09-1.07s-0.63-.68-2.56-0.47a4,4,0,0,1-.31-0.6,5.33,5.33,0,0,0-1.41,1.67,5.19,5.19,0,0,0-2.17,1.88,2.81,2.81,0,0,1-.92,1s-2.62,1.07-2.49,2.25a0.77,0.77,0,0,0,.81.84,0.5,0.5,0,0,1,.34.6,7.11,7.11,0,0,0,1.56.1,6.59,6.59,0,0,1-2.33,1.8s1.26,0.38,3.83-1a0.94,0.94,0,0,1-.75.61s-0.06.16,0,.21a0.48,0.48,0,0,1-.41.16s0,0.89,2.63.54a2.64,2.64,0,0,1-.7,1.05,1,1,0,0,0,.59.06,11.23,11.23,0,0,1-1.45,3,8.34,8.34,0,0,1-.94,1.2S33.92,40,34,40.47a4.39,4.39,0,0,0,.65,0,8.31,8.31,0,0,1-2.94,2.41,10.68,10.68,0,0,0-2.78,1.44S27.84,46,29,46a13.93,13.93,0,0,1,2.43-.06s0.54,0.11,2-1.25c0,0,4-3.33,5.5-3.37a1.08,1.08,0,0,0,.21.65S40.3,40.36,41,40.37s1.63,1.9,5.86,1.77a12,12,0,0,0,6.61-1.95A39.24,39.24,0,0,0,58.31,37a8.05,8.05,0,0,1,2.2.13,5.42,5.42,0,0,0-1.57,4.13,5.7,5.7,0,0,1,.47-0.56,1.16,1.16,0,0,0,.2.55,1.11,1.11,0,0,1,.61-0.69,0.67,0.67,0,0,1,.62.93,1,1,0,0,1-1,.9,11.43,11.43,0,0,0-2.56.39A3.06,3.06,0,0,0,56,43.7,8.06,8.06,0,0,1,58.93,45.08Z"/><path id="_Path_8" data-name="&lt;Path&gt;" class="cls-3" d="M58.64,44.72l7,0.39s0,1.34,1.75.79a2.12,2.12,0,0,0,2,.16s2.06-.16,1.82-1l5.67,0.2,1.59,1.81L60,48.11A21.25,21.25,0,0,0,58.64,44.72Z"/><path id="_Path_9" data-name="&lt;Path&gt;" class="cls-3" d="M61.66,64.5L78.5,47.84,60.23,49a40.26,40.26,0,0,1,1.55,8S61.9,63,61.66,64.5Z"/><path id="_Path_10" data-name="&lt;Path&gt;" class="cls-3" d="M38.7,64.34L21.48,47.9l18.47,1s-1.25,5.79-1.33,6.85A59.27,59.27,0,0,0,38.7,64.34Z"/><path id="_Path_11" data-name="&lt;Path&gt;" class="cls-3" d="M40.18,48l-18.52-.94,1.86-1.63,4.18-.08a1.62,1.62,0,0,0,.63,1.06,3,3,0,0,0,1.45,0,1.23,1.23,0,0,1,.79.12,1.73,1.73,0,0,0,1.33,0L33,46.05a1.06,1.06,0,0,0,.63-1l7.38-.22A32.55,32.55,0,0,1,40.18,48Z"/><path id="_Path_12" data-name="&lt;Path&gt;" class="cls-4" d="M50.25,43s-8.93,0-9.51,2.59c0,0-1.33,4.91-1.69,7.3a50,50,0,0,0-.35,11.42s0.9,6.87,4.87,11.93c0,0,1.72,1.77,6.69,1.77,0,0,4.58.08,6.58-1.77s4.79-9,4.79-11.93a41.85,41.85,0,0,0-.47-11.42,53.08,53.08,0,0,0-2-7.3S58.63,43,50.25,43Z"/><g id="_Group_6" data-name="&lt;Group&gt;"><path id="_Path_13" data-name="&lt;Path&gt;" class="cls-5" d="M41.81,46.55a1.07,1.07,0,0,0,.59.93l0.15-.34a0.69,0.69,0,0,1-.37-0.59c0-1.22,5-1.83,8.07-1.93,0,0,6,.14,7.28,1.46a0.64,0.64,0,0,1,.21.46v0a0.63,0.63,0,0,1-.26.67l0.16,0.34a0.91,0.91,0,0,0,.49-0.87,1.07,1.07,0,0,0,0-.18v0h0a1,1,0,0,0-.31-0.69c-1.38-1.44-7.3-1.57-7.55-1.58C49.39,44.27,41.81,44.57,41.81,46.55Z"/></g><g id="_Group_7" data-name="&lt;Group&gt;"><path id="_Compound_Path_3" data-name="&lt;Compound Path&gt;" class="cls-5" d="M43,47.06a0.57,0.57,0,0,0,0,.15,1,1,0,0,0,.6.84l0.17-.33a0.52,0.52,0,0,1-.39-0.58V47.08c0-.73,3.56-1.42,6.85-1.64,2.45,0,6.36.45,6.36,1.64v0.05a0.35,0.35,0,0,1-.06.26,1.39,1.39,0,0,1-.93.5l0.09,0.37a1.74,1.74,0,0,0,1.18-.69A0.77,0.77,0,0,0,57,47.18a0.42,0.42,0,0,0,0-.12c0-1.94-6.06-2-6.75-2C49,45.14,43.07,45.61,43,47.06Zm0,0h0s0,0,0-.05v0.06Zm14,0v0Z"/></g><g id="_Group_8" data-name="&lt;Group&gt;"><rect id="_Path_14" data-name="&lt;Path&gt;" class="cls-5" x="51.91" y="46.36" width="4.73" height="0.38"/></g><g id="_Group_9" data-name="&lt;Group&gt;"><rect id="_Path_15" data-name="&lt;Path&gt;" class="cls-5" x="43.61" y="46.36" width="4.6" height="0.38"/></g><g id="_Group_10" data-name="&lt;Group&gt;"><rect id="_Path_16" data-name="&lt;Path&gt;" class="cls-5" x="43.62" y="47.7" width="12.61" height="0.38"/></g><g id="_Group_11" data-name="&lt;Group&gt;"><path id="_Compound_Path_4" data-name="&lt;Compound Path&gt;" class="cls-5" d="M48,46.55c0,0.63.91,1.13,2.07,1.13s2.07-.5,2.07-1.13-0.91-1.13-2.07-1.13S48,45.92,48,46.55Zm0.38,0c0-.36.7-0.75,1.7-0.75s1.7,0.4,1.7.75-0.7.75-1.7,0.75S48.36,46.91,48.36,46.55Z"/></g><path id="_Path_17" data-name="&lt;Path&gt;" class="cls-5" d="M49.14,45.76v1.59a3.78,3.78,0,0,0,.94.14A4.38,4.38,0,0,0,51,47.4V45.71a3.69,3.69,0,0,0-.92-0.09A3,3,0,0,0,49.14,45.76Z"/><ellipse id="_Path_18" data-name="&lt;Path&gt;" class="cls-1" cx="50.06" cy="46" rx="0.74" ry="0.33"/><g id="_Group_12" data-name="&lt;Group&gt;"><rect id="_Path_19" data-name="&lt;Path&gt;" class="cls-5" x="41.41" y="44.83" width="0.38" height="1.48" transform="translate(-19.11 56.6) rotate(-57.91)"/></g><g id="_Group_13" data-name="&lt;Group&gt;"><path id="_Path_20" data-name="&lt;Path&gt;" class="cls-5" d="M42.06,44.32l1,1.23v1.53h0.38V45.42l-1-1.33Z"/></g><g id="_Group_14" data-name="&lt;Group&gt;"><path id="_Path_21" data-name="&lt;Path&gt;" class="cls-5" d="M44,43.71L44.64,45v1H45V45l-0.66-1.41Z"/></g><g id="_Group_15" data-name="&lt;Group&gt;"><path id="_Path_22" data-name="&lt;Path&gt;" class="cls-5" d="M46,43.39l0.57,1.35v0.86H47V44.67l-0.6-1.42Z"/></g><g id="_Group_16" data-name="&lt;Group&gt;"><polygon id="_Path_23" data-name="&lt;Path&gt;" class="cls-5" points="48.22 43.16 48.46 44.54 48.45 45.39 48.83 45.39 48.83 44.51 48.59 43.09 48.22 43.16"/></g><g id="_Group_17" data-name="&lt;Group&gt;"><path id="_Path_24" data-name="&lt;Path&gt;" class="cls-5" d="M50.78,44.41v0.84h0.38V44.46l0.37-1.31L51.17,43Z"/></g><g id="_Group_18" data-name="&lt;Group&gt;"><path id="_Path_25" data-name="&lt;Path&gt;" class="cls-5" d="M53.06,44.58v0.84h0.38V44.67l0.66-1.31-0.34-.17Z"/></g><g id="_Group_19" data-name="&lt;Group&gt;"><path id="_Path_26" data-name="&lt;Path&gt;" class="cls-5" d="M55.22,44.92v1h0.38V45l0.86-1.15-0.3-.23Z"/></g><g id="_Group_20" data-name="&lt;Group&gt;"><path id="_Path_27" data-name="&lt;Path&gt;" class="cls-5" d="M57,45.5v2h0.38V45.67l1-.81-0.24-.29Z"/></g><g id="_Group_21" data-name="&lt;Group&gt;"><rect id="_Path_28" data-name="&lt;Path&gt;" class="cls-5" x="57.82" y="45.82" width="1.36" height="0.38" transform="translate(-9.32 15.35) rotate(-13.86)"/></g><g id="_Group_22" data-name="&lt;Group&gt;"><path id="_Path_29" data-name="&lt;Path&gt;" class="cls-6" d="M59.19,45.62c0,2.79-8.93,3.26-8.93,3.26-8.27,0-9.49-3.21-9.49-3.21C40.61,46.16,40,48.5,40,48.5a20,20,0,0,0,10.15,2.92s6-.07,9.93-2.82Z"/><path id="_Compound_Path_5" data-name="&lt;Compound Path&gt;" class="cls-5" d="M40.58,45.61c-0.15.49-.73,2.75-0.75,2.84l0,0.13,0.11,0.07a20.42,20.42,0,0,0,10.25,2.95c0.06,0,6.11-.1,10-2.86l0.11-.08-0.94-3.1L59,45.62c0,2.14-6.32,2.94-8.76,3.07-8,0-9.3-3.06-9.31-3.09l-0.2-.5Zm0.24,0.53c0.63,0.89,2.81,2.93,9.43,2.93,0.35,0,7.73-.44,8.94-2.78l0.68,2.22c-3.83,2.62-9.65,2.72-9.71,2.72a20.05,20.05,0,0,1-9.93-2.81C40.33,48,40.63,46.83,40.82,46.14Z"/></g><g id="_Group_23" data-name="&lt;Group&gt;"><path id="_Path_30" data-name="&lt;Path&gt;" class="cls-6" d="M42.4,74.57a15.9,15.9,0,0,0,7.76,1.67s4.63,0.12,8-1.73a6.42,6.42,0,0,1-1.57,2A11.48,11.48,0,0,1,50.25,78a13.45,13.45,0,0,1-6.53-1.57Z"/><path id="_Compound_Path_6" data-name="&lt;Compound Path&gt;" class="cls-5" d="M58,74.34c-3.25,1.8-7.83,1.71-7.87,1.7a15.92,15.92,0,0,1-7.67-1.64l-0.25.27,1.35,1.94,0,0a13.49,13.49,0,0,0,6.64,1.6,11.56,11.56,0,0,0,6.41-1.61,6.49,6.49,0,0,0,1.63-2L58.6,74Zm-0.39.6a4.55,4.55,0,0,1-1.19,1.36,11.43,11.43,0,0,1-6.21,1.54,13.39,13.39,0,0,1-6.4-1.52L43,75.07a17.54,17.54,0,0,0,7.18,1.36A18.93,18.93,0,0,0,57.65,74.95Z"/></g><g id="_Group_24" data-name="&lt;Group&gt;"><g id="_Group_25" data-name="&lt;Group&gt;"><path id="_Path_31" data-name="&lt;Path&gt;" class="cls-5" d="M43.31,75.14L43.64,75c-6.48-11.72-1.87-25.41-1.82-25.54l-0.36-.12C41.42,49.43,36.75,63.27,43.31,75.14Z"/></g><g id="_Group_26" data-name="&lt;Group&gt;"><path id="_Path_32" data-name="&lt;Path&gt;" class="cls-5" d="M44.84,75.55l0.36-.11c-3.71-11.82-1-24.81-.94-24.94l-0.37-.08C43.86,50.54,41.1,63.63,44.84,75.55Z"/></g><g id="_Group_27" data-name="&lt;Group&gt;"><path id="_Path_33" data-name="&lt;Path&gt;" class="cls-5" d="M47.36,76.11L47.74,76c-1.84-11.11-.43-24.74-0.41-24.87l-0.37,0C46.94,51.27,45.52,65,47.36,76.11Z"/></g><g id="_Group_28" data-name="&lt;Group&gt;"><rect id="_Path_34" data-name="&lt;Path&gt;" class="cls-5" x="49.97" y="51.42" width="0.38" height="24.82"/></g><g id="_Group_29" data-name="&lt;Group&gt;"><path id="_Path_35" data-name="&lt;Path&gt;" class="cls-5" d="M52.84,51.18c0,0.16,2.25,15.61.16,24.74L53.37,76c2.1-9.19-.13-24.72-0.15-24.87Z"/></g><g id="_Group_30" data-name="&lt;Group&gt;"><path id="_Path_36" data-name="&lt;Path&gt;" class="cls-5" d="M56,50.49c0,0.15,3,15.61-.37,24.87L56,75.49c3.43-9.36.42-24.92,0.39-25.08Z"/></g><g id="_Group_31" data-name="&lt;Group&gt;"><path id="_Path_37" data-name="&lt;Path&gt;" class="cls-5" d="M58.5,49.49c0,0.14,4.35,14.6-1.62,25.43l0.33,0.18c6.05-11,1.7-25.58,1.65-25.72Z"/></g></g><path id="_Path_38" data-name="&lt;Path&gt;" class="cls-1" d="M39.86,23.78a7.32,7.32,0,0,0-.42,1.16A3.82,3.82,0,0,0,39,24.53,2.2,2.2,0,0,1,39.86,23.78Z"/><path id="_Path_39" data-name="&lt;Path&gt;" class="cls-1" d="M38.2,26.05a1.41,1.41,0,0,1,.71-0.38,0.22,0.22,0,0,1,.29.18l0,0.5S38.36,26.08,38.2,26.05Z"/><path id="_Path_40" data-name="&lt;Path&gt;" class="cls-1" d="M36.79,26.38a4.47,4.47,0,0,0,.82.76,2.13,2.13,0,0,0-.29.81,2.32,2.32,0,0,0-1.11-.09,1.06,1.06,0,0,1,.54-0.68Z"/><path id="_Path_41" data-name="&lt;Path&gt;" class="cls-1" d="M40.75,24a0.49,0.49,0,0,1,.67-0.17,1.64,1.64,0,0,1,.65.86,6.71,6.71,0,0,1-1.14-.21A0.38,0.38,0,0,1,40.75,24Z"/><path id="_Path_42" data-name="&lt;Path&gt;" class="cls-1" d="M43.23,24.9s0.25,0.56.31,0.8a3.25,3.25,0,0,1,.8-0.31A1.5,1.5,0,0,0,43.23,24.9Z"/><path id="_Path_43" data-name="&lt;Path&gt;" class="cls-1" d="M41.53,26.46s1,2.88,2.68,3.09A13.6,13.6,0,0,1,42.44,27,5.19,5.19,0,0,1,41.53,26.46Z"/><path id="_Path_44" data-name="&lt;Path&gt;" class="cls-1" d="M43.58,27a2.57,2.57,0,0,0,2.67,1.83S43.87,27.25,43.58,27Z"/><path id="_Path_45" data-name="&lt;Path&gt;" class="cls-1" d="M44.85,26.29a0.69,0.69,0,0,1,.81.1s0.86,0.8,1,.94S44.7,27.29,44.85,26.29Z"/><path id="_Path_46" data-name="&lt;Path&gt;" class="cls-1" d="M46.08,29.49h1.34a1.16,1.16,0,0,1-.69.47A0.87,0.87,0,0,1,46.08,29.49Z"/><path id="_Path_47" data-name="&lt;Path&gt;" class="cls-1" d="M47.16,30.84l0.8,0a1.72,1.72,0,0,0,.31.73A2,2,0,0,1,47.16,30.84Z"/><path id="_Path_48" data-name="&lt;Path&gt;" class="cls-1" d="M47.14,32.13a8,8,0,0,0,1.19.54s-0.68.25-.85,0.33A3.18,3.18,0,0,1,47.14,32.13Z"/><path id="_Path_49" data-name="&lt;Path&gt;" class="cls-1" d="M43.15,30.66a7.19,7.19,0,0,0,2.13.82l0.22,1A4,4,0,0,1,43.15,30.66Z"/><path id="_Path_50" data-name="&lt;Path&gt;" class="cls-1" d="M43,32.71a17.46,17.46,0,0,0,3.68.51l0.27,1a9,9,0,0,0-1.52-.39,1.69,1.69,0,0,0,.12.63A4.65,4.65,0,0,1,43,32.71Z"/><path id="_Path_51" data-name="&lt;Path&gt;" class="cls-1" d="M46.16,35.24l0.56,1-0.8-.12A2.51,2.51,0,0,0,46.16,35.24Z"/><path id="_Path_52" data-name="&lt;Path&gt;" class="cls-1" d="M43.62,34.92s1.18,0.22,1.82.41a2.37,2.37,0,0,0-.07,1A4.31,4.31,0,0,1,43.62,34.92Z"/><path id="_Path_53" data-name="&lt;Path&gt;" class="cls-1" d="M41.3,32.21a20.74,20.74,0,0,0,1.35,1.86s-0.48-.22-0.76-0.37a3.2,3.2,0,0,0-.05.72S41.12,33.89,41.3,32.21Z"/><path id="_Path_54" data-name="&lt;Path&gt;" class="cls-1" d="M40,32.32s0.48,0.25.31,0.52c0,0-.65.65-0.85,0.86C39.51,33.7,39.25,32.37,40,32.32Z"/><path id="_Path_55" data-name="&lt;Path&gt;" class="cls-1" d="M40,28.77a1.87,1.87,0,0,1,.78,1.48A1.12,1.12,0,0,0,40,29.7,2.15,2.15,0,0,0,40,28.77Z"/><path id="_Path_56" data-name="&lt;Path&gt;" class="cls-1" d="M40.91,27.57l-0.41.54a14.48,14.48,0,0,1,1.28,2.42A5.89,5.89,0,0,1,42,29.18a2.4,2.4,0,0,1-.5-0.25,0.56,0.56,0,0,1,.17-0.48A0.89,0.89,0,0,1,40.91,27.57Z"/><path id="_Path_57" data-name="&lt;Path&gt;" class="cls-1" d="M33.74,28.67a0.88,0.88,0,0,0-.51.78s-0.13.46,0.48,0.38A2.78,2.78,0,0,1,33.74,28.67Z"/><path id="_Path_58" data-name="&lt;Path&gt;" class="cls-1" d="M34.25,28.94s-0.31.82,0.06,0.82a0.24,0.24,0,0,0,.21-0.1A4.94,4.94,0,0,1,34.25,28.94Z"/><path id="_Path_59" data-name="&lt;Path&gt;" class="cls-1" d="M36.37,30.81l0.52,0.43s-0.67.41-1,.55A4.08,4.08,0,0,0,36.37,30.81Z"/><path id="_Path_60" data-name="&lt;Path&gt;" class="cls-1" d="M36.71,29.86S38.29,30,38,32.21A1.69,1.69,0,0,0,39,31.39a3.77,3.77,0,0,0,.47.12l0.12-.4,0.37,0.13-0.1-.81a4.41,4.41,0,0,1-1,.77S38,29.5,36.71,29.86Z"/><path id="_Path_61" data-name="&lt;Path&gt;" class="cls-1" d="M38.42,36.79s0.16-1.41.82-1.28a0.64,0.64,0,0,1,.27.22,5.57,5.57,0,0,1,.88-1.24l0.05,0.13-0.3,1.54,1.13-.47,1.06,0.86,0.56-.46,1.3,1.31,0.37-.71,0.75,1a1,1,0,0,0,.39,0A1.15,1.15,0,0,1,46.63,37l0.77,0.33-0.05-2.12,1-.05,0.08-1.48,1.36-.48,0.39,0.2L49,34.11l0.2,1.47a3.45,3.45,0,0,0-1.11.39l0.16,2-2.07.09a2,2,0,0,0-.21,1A7.19,7.19,0,0,1,44.61,38a1.84,1.84,0,0,0-.29.58l-1.23-1.2-0.59.48L40.95,36.4l-1.75,1-0.05-.86S38.66,36.67,38.42,36.79Z"/><path id="_Path_62" data-name="&lt;Path&gt;" class="cls-1" d="M37.76,38.94l0-.68a13.22,13.22,0,0,0-2.42,2,23.75,23.75,0,0,1-1.88,1.91,16.63,16.63,0,0,1-1.82,1.24,7.15,7.15,0,0,0-1.81,1,12.14,12.14,0,0,1,1.52-.52A4.39,4.39,0,0,0,32.94,43l2.24-1.95A19.67,19.67,0,0,1,37.76,38.94Z"/><path id="_Path_63" data-name="&lt;Path&gt;" class="cls-1" d="M41,39s0.5-.56.14-0.9a0.59,0.59,0,0,0-.54.13A0.75,0.75,0,0,1,39.89,38s-1.62,1.16-2.66,2.07l-2.05,1.67a13.08,13.08,0,0,0-2,1.81,8.28,8.28,0,0,1-1.66.78s-1.71.38-1.74,0.77a7.46,7.46,0,0,0,2.53-.26s1.84-1.53,2-1.67a25.1,25.1,0,0,1,3.27-2.41,25.84,25.84,0,0,1,2.68-1.2A2.24,2.24,0,0,0,41,39Z"/><path id="_Path_64" data-name="&lt;Path&gt;" class="cls-1" d="M45.16,39.57a6.35,6.35,0,0,0,1.69.08,0.87,0.87,0,0,1,.55-0.93s0.42-.07.59,0.6a0.25,0.25,0,0,0,.29.22s0.43,0.24,1.18-1.23c0,0,5.36-1,7-1.95a15.3,15.3,0,0,1-6.24,3.36S47,40.54,45,39.87Z"/><path id="_Path_65" data-name="&lt;Path&gt;" class="cls-1" d="M50.94,34.87a1.7,1.7,0,0,0-.49.92,5.44,5.44,0,0,0,2.14-.45s3-1.51,5-1.39c0,0-1.22-.94-3.63,0A19.73,19.73,0,0,1,50.94,34.87Z"/><path id="_Path_66" data-name="&lt;Path&gt;" class="cls-1" d="M57.26,32.47a11.09,11.09,0,0,1,6.53-1.26l0.33,0.73A49.42,49.42,0,0,0,57.26,32.47Z"/><path id="_Path_67" data-name="&lt;Path&gt;" class="cls-1" d="M61,33.16S65.07,31.79,65.6,36C65.6,36,62.84,33.63,61,33.16Z"/><path id="_Path_68" data-name="&lt;Path&gt;" class="cls-1" d="M65.72,32a4,4,0,0,1-.13,1.13,3.49,3.49,0,0,1,1.17,0A3.41,3.41,0,0,0,65.72,32Z"/><path id="_Path_69" data-name="&lt;Path&gt;" class="cls-1" d="M61.58,37.26a4.84,4.84,0,0,1,1.65,1,9.23,9.23,0,0,0-1.43,1.2,1.11,1.11,0,0,0-1.33-.29A5.14,5.14,0,0,1,61.58,37.26Z"/><path id="_Path_70" data-name="&lt;Path&gt;" class="cls-1" d="M64.62,38.6s0.14,1.59,1.3,1.83A8.68,8.68,0,0,1,68,40.6s0-.8-1.39-1.16A3.46,3.46,0,0,1,64.62,38.6Z"/><path id="_Path_71" data-name="&lt;Path&gt;" class="cls-1" d="M57.6,43.24a1.48,1.48,0,0,0-.9.35,0.18,0.18,0,0,0,.08.26,0.42,0.42,0,0,0,.41,0A3.06,3.06,0,0,0,57.6,43.24Z"/><path id="_Path_72" data-name="&lt;Path&gt;" class="cls-1" d="M59.23,43.72a1.64,1.64,0,0,0-1.12.29s-0.29.29,0,.37a0.57,0.57,0,0,0,.49-0.06A4.38,4.38,0,0,0,59.23,43.72Z"/><path id="_Path_73" data-name="&lt;Path&gt;" class="cls-1" d="M69.55,40a4.87,4.87,0,0,1,.71,1.06,4,4,0,0,1,.37-1A7.77,7.77,0,0,1,69.55,40Z"/><path id="_Path_74" data-name="&lt;Path&gt;" class="cls-1" d="M71.15,43.56a6,6,0,0,1-.88.72s-0.38.27-.16,0.47C70.11,44.76,71.08,45.05,71.15,43.56Z"/><path id="_Path_75" data-name="&lt;Path&gt;" class="cls-1" d="M69.26,44.36l-0.63.43S68.94,45.68,69.26,44.36Z"/><path id="_Path_76" data-name="&lt;Path&gt;" class="cls-1" d="M68.27,44.43s-0.77.25-.9,0.32S67.84,45.47,68.27,44.43Z"/><path id="_Path_77" data-name="&lt;Path&gt;" class="cls-1" d="M65.06,30.7a2,2,0,0,1,.65.45s0.38-2.12-.25-2.91A4.26,4.26,0,0,1,65.06,30.7Z"/><path id="_Path_78" data-name="&lt;Path&gt;" class="cls-1" d="M53.42,28.55a1.52,1.52,0,0,1-1.48-1.22A1.74,1.74,0,0,1,53,25.6a7.41,7.41,0,0,1,3.61-.39c3.07,0.62,3.61-.37,3.61-0.37a7.32,7.32,0,0,1-2.53-.1c0.08-.41,1.53-0.68,1.53-0.68a4.52,4.52,0,0,0-3.61.63,4,4,0,0,1-.58.1,10,10,0,0,0-2.16.5,2.11,2.11,0,0,0-1.3,2s0.29,1.78,1.84,1.29"/><g id="_Group_32" data-name="&lt;Group&gt;"><path id="_Compound_Path_7" data-name="&lt;Compound Path&gt;" class="cls-5" d="M40.56,45.58s-1.34,4.94-1.69,7.31a50.52,50.52,0,0,0-.35,11.47c0,0.07,1,7,4.91,12,0.09,0.09,1.85,1.84,6.84,1.84,0.19,0,4.67.06,6.71-1.82s4.85-8.94,4.85-12.07c0,0,.19-1.86.19-4.33a34,34,0,0,0-.67-7.13,52.35,52.35,0,0,0-2-7.32c-0.07-.25-0.94-2.72-9.11-2.72C49.88,42.84,41.17,42.84,40.56,45.58Zm9.7,32.27c-4.81,0-6.54-1.69-6.56-1.71-3.87-4.95-4.81-11.76-4.81-11.82A50.13,50.13,0,0,1,39.24,53c0.35-2.36,1.67-7.23,1.68-7.28,0.46-2,6.89-2.46,9.33-2.45h0c8.05,0,8.74,2.42,8.75,2.44v0A53.23,53.23,0,0,1,61,53a42,42,0,0,1,.47,11.36c0,3-2.83,10.06-4.73,11.81S50.3,77.85,50.26,77.85Zm0-35h0Z"/></g><circle id="_Path_79" data-name="&lt;Path&gt;" class="cls-5" cx="52.05" cy="49.99" r="0.44"/><circle id="_Path_80" data-name="&lt;Path&gt;" class="cls-5" cx="53.28" cy="49.85" r="0.44"/><path id="_Path_81" data-name="&lt;Path&gt;" class="cls-5" d="M53.05,48.59a1.6,1.6,0,0,1,1.48,1.06,1.3,1.3,0,0,1-1.28,1.45l1.81-.37a1.17,1.17,0,0,0,.45-1.32s-0.27-1.14-.81-1.11Z"/><circle id="_Path_82" data-name="&lt;Path&gt;" class="cls-5" cx="47.89" cy="77.04" r="0.44"/><circle id="_Path_83" data-name="&lt;Path&gt;" class="cls-5" cx="49.12" cy="77.15" r="0.44"/><path id="_Path_84" data-name="&lt;Path&gt;" class="cls-5" d="M47.55,76.08a0.85,0.85,0,0,0-.8.65,1.14,1.14,0,0,0,.88,1.12l-1.73-.37a1.79,1.79,0,0,1-.16-1,0.73,0.73,0,0,1,.59-0.59Z"/><g id="_Group_33" data-name="&lt;Group&gt;"><path id="_Path_85" data-name="&lt;Path&gt;" class="cls-6" d="M39.08,53A21.19,21.19,0,0,0,50.16,56s7.14-.16,11-3.22a25.55,25.55,0,0,1,.47,2.86,25.57,25.57,0,0,1-11.42,2.94s-6.8.14-11.43-2.81Z"/><path id="_Compound_Path_8" data-name="&lt;Compound Path&gt;" class="cls-5" d="M61,52.66c-3.71,3-10.77,3.18-10.84,3.18a21.2,21.2,0,0,1-11-3l-0.25-.17L38.52,55.9,38.62,56c4.63,2.94,11.47,2.84,11.54,2.84a26,26,0,0,0,11.51-3l0.09,0v-0.1a23.81,23.81,0,0,0-.47-2.92l-0.06-.3Zm0,0.47a24.22,24.22,0,0,1,.41,2.43,25.6,25.6,0,0,1-11.23,2.87c-0.07,0-6.7.09-11.23-2.72l0.3-2.43a21.89,21.89,0,0,0,10.93,2.94C50.45,56.21,57.13,56,61,53.13Z"/></g><circle id="_Path_86" data-name="&lt;Path&gt;" class="cls-5" cx="52.78" cy="57.12" r="0.44"/><circle id="_Path_87" data-name="&lt;Path&gt;" class="cls-5" cx="54.06" cy="56.92" r="0.44"/><path id="_Path_88" data-name="&lt;Path&gt;" class="cls-5" d="M53.93,55.63a1.6,1.6,0,0,1,1.48,1.06,1.3,1.3,0,0,1-1.28,1.45l1.81-.37a1.17,1.17,0,0,0,.45-1.32s-0.27-1.14-.81-1.11Z"/><g id="_Group_34" data-name="&lt;Group&gt;"><circle id="_Path_89" data-name="&lt;Path&gt;" class="cls-5" cx="50.15" cy="62.79" r="2.33"/><circle id="_Path_90" data-name="&lt;Path&gt;" class="cls-1" cx="50.15" cy="62.79" r="1.51"/><circle id="_Path_91" data-name="&lt;Path&gt;" class="cls-5" cx="50.15" cy="62.79" r="0.78"/></g><g id="_Group_35" data-name="&lt;Group&gt;"><path id="_Path_92" data-name="&lt;Path&gt;" class="cls-6" d="M38.87,65.1a18.55,18.55,0,0,0,11.29,3.52s6.71,0,11.38-3.57a17.88,17.88,0,0,1-.86,3.57,25,25,0,0,1-10.52,2.67,22.31,22.31,0,0,1-10.42-2.6Z"/><path id="_Compound_Path_9" data-name="&lt;Compound Path&gt;" class="cls-5" d="M39.58,68.81l0.07,0a22.69,22.69,0,0,0,10.52,2.63,25.42,25.42,0,0,0,10.6-2.69l0.06,0,0-.06a17.67,17.67,0,0,0,.88-3.62l0.07-.46-0.37.28c-4.56,3.53-11.2,3.53-11.27,3.53A18.54,18.54,0,0,1,39,65l-0.44-.37Zm21.71-3.35a15.47,15.47,0,0,1-.76,3A25,25,0,0,1,50.16,71.1h0A22.37,22.37,0,0,1,39.9,68.56l-0.73-3a19.46,19.46,0,0,0,11,3.25C50.22,68.81,56.64,68.8,61.29,65.46Z"/></g><circle id="_Path_93" data-name="&lt;Path&gt;" class="cls-5" cx="46.66" cy="69.69" r="0.44"/><circle id="_Path_94" data-name="&lt;Path&gt;" class="cls-5" cx="47.94" cy="69.85" r="0.44"/><path id="_Path_95" data-name="&lt;Path&gt;" class="cls-5" d="M46.88,68.37a1.69,1.69,0,0,0-1.51,1S45.1,70.68,46.78,71l-2.16-.43a1.71,1.71,0,0,1-.2-1.35,2,2,0,0,1,.8-1.18Z"/></g></g><g id="_Group_36" data-name="&lt;Group&gt;"><path id="_Compound_Path_10" data-name="&lt;Compound Path&gt;" class="cls-2" d="M11.07,41.52l-1.75-.39,1-4.45,0.19,0,0.3,0.06a4.74,4.74,0,0,1,3.08,1.88,4.32,4.32,0,0,1,.47,3.46,5.1,5.1,0,0,1-.71,1.73A4.09,4.09,0,0,1,12.41,45a4.29,4.29,0,0,1-1.62.6,4.81,4.81,0,0,1-3.42-.76A4.32,4.32,0,0,1,5.58,42a5,5,0,0,1,.08-1.82,4.79,4.79,0,0,1,1-2.06,4.34,4.34,0,0,1,1.79-1.26L8.92,39a2.44,2.44,0,0,0-.89.63,2.11,2.11,0,0,0-.46.93,2.06,2.06,0,0,0,.32,1.76,2.81,2.81,0,0,0,1.72,1,2.84,2.84,0,0,0,2-.17,2.05,2.05,0,0,0,1-1.45,2.44,2.44,0,0,0-.1-1.54,1.66,1.66,0,0,0-1-.93Z"/><path id="_Compound_Path_11" data-name="&lt;Compound Path&gt;" class="cls-2" d="M16,35.89L8.47,31.94l1.12-2.15a10.08,10.08,0,0,1,1-1.7,2.54,2.54,0,0,1,.84-0.66,2.3,2.3,0,0,1,1.12-.21,2.85,2.85,0,0,1,1.17.33A2.53,2.53,0,0,1,15,28.73,2.37,2.37,0,0,1,15,30.36l4.13-.47-1.21,2.33-3.87.19L17,34Zm-3-4,0.2-.38a1.85,1.85,0,0,0,.28-1.09A0.93,0.93,0,0,0,13,29.73a1.12,1.12,0,0,0-1-.13,1.7,1.7,0,0,0-.74.84l-0.21.41Z"/><path id="_Compound_Path_12" data-name="&lt;Compound Path&gt;" class="cls-2" d="M13.64,23l1.55-1.73L18.28,24a12.9,12.9,0,0,0,1,.84,2.53,2.53,0,0,0,.6.33,1,1,0,0,0,.68,0,1.73,1.73,0,0,0,.67-0.49A1.71,1.71,0,0,0,21.65,24a1,1,0,0,0-.06-0.68,2.55,2.55,0,0,0-.39-0.56,13.08,13.08,0,0,0-.95-0.91l-0.43-.39-2.66-2.37,1.54-1.73,3.36,3a9.22,9.22,0,0,1,1.43,1.51A2.78,2.78,0,0,1,24,23a2.63,2.63,0,0,1-.22,1.41,6.75,6.75,0,0,1-2.47,2.77,2.67,2.67,0,0,1-1.38.38,2.85,2.85,0,0,1-1.23-.34A9.05,9.05,0,0,1,17,26l-0.66-.59Z"/><path id="_Compound_Path_13" data-name="&lt;Compound Path&gt;" class="cls-2" d="M28.73,20.31l-1.81,1.22-4.79-7.06,2-1.36a9.71,9.71,0,0,1,1.74-1A2.36,2.36,0,0,1,27,11.95a2.52,2.52,0,0,1,1.14.4,3.32,3.32,0,0,1,.94.94,3.43,3.43,0,0,1,.55,1.25,2.34,2.34,0,0,1-.06,1.19,2.27,2.27,0,0,1-.48.81,7.13,7.13,0,0,1-1.23,1l-0.33.22L27.15,18ZM26.1,16.43l0.37-.25a2.17,2.17,0,0,0,.84-0.85,0.88,0.88,0,0,0-.17-0.83,0.86,0.86,0,0,0-.7-0.45,2.12,2.12,0,0,0-1.08.46L25,14.77Z"/><path id="_Compound_Path_14" data-name="&lt;Compound Path&gt;" class="cls-2" d="M40.68,10.17a4.34,4.34,0,0,1-.21,3.42A4.66,4.66,0,0,1,39.38,15a4.65,4.65,0,0,1-3.3,1.15,4.46,4.46,0,0,1-1.71-.43,4.32,4.32,0,0,1-1.42-1,4.51,4.51,0,0,1-1.13-3.25,4.34,4.34,0,0,1,.47-1.69,4.47,4.47,0,0,1,1.07-1.4,4.67,4.67,0,0,1,3.31-1.15,4.52,4.52,0,0,1,1.72.43A4.36,4.36,0,0,1,40.68,10.17ZM37.19,14a2.05,2.05,0,0,0,1.28-1.2,2.59,2.59,0,0,0,0-1.9,2.57,2.57,0,0,0-1.19-1.47,2.14,2.14,0,0,0-3,1,2.59,2.59,0,0,0,0,1.9,2.6,2.6,0,0,0,1.18,1.49A2.05,2.05,0,0,0,37.19,14Z"/><path id="_Compound_Path_15" data-name="&lt;Compound Path&gt;" class="cls-2" d="M58.23,14.27l-2.16-.2-0.17-3.72q0-.39,0-0.87t0-1a10.49,10.49,0,0,1-.44,1.32l-0.1.24-1.51,3.88-1.54-.14L51.5,9.65l0-.26A9.37,9.37,0,0,1,51.26,8Q51.18,8.5,51.09,9t-0.2.93l-0.83,3.63-2.15-.19L50,5l2.29,0.21,0.89,4.5,0,0.15a5.67,5.67,0,0,1,.14,1,4.11,4.11,0,0,1,.13-0.49c0.06-.18.14-0.4,0.23-0.65l1.69-4.25,2.3,0.21Z"/><path id="_Compound_Path_16" data-name="&lt;Compound Path&gt;" class="cls-2" d="M69.77,14.36a4.33,4.33,0,0,1-2.45,2.4,4.66,4.66,0,0,1-1.75.31,4.64,4.64,0,0,1-3.22-1.36,4.46,4.46,0,0,1-1-1.46A4.31,4.31,0,0,1,61,12.54a4.37,4.37,0,0,1,2.82-4.11,4.46,4.46,0,0,1,1.73-.32,4.67,4.67,0,0,1,3.23,1.36,4.5,4.5,0,0,1,1,1.47A4.37,4.37,0,0,1,69.77,14.36Zm-5.17.54a2,2,0,0,0,1.75,0,2.6,2.6,0,0,0,1.28-1.41,2.58,2.58,0,0,0,.1-1.89,2.14,2.14,0,0,0-2.94-1.24,2.6,2.6,0,0,0-1.28,1.4,2.61,2.61,0,0,0-.12,1.9A2.05,2.05,0,0,0,64.6,14.9Z"/><path id="_Compound_Path_17" data-name="&lt;Compound Path&gt;" class="cls-2" d="M69.86,19.47l5.37-6.63L76.61,14a14.53,14.53,0,0,1,2.07,1.91,4.06,4.06,0,0,1,.73,1.39,3.65,3.65,0,0,1,0,1.9,5,5,0,0,1-2.53,3.13,3.65,3.65,0,0,1-1.87.35,4,4,0,0,1-1.48-.41,11.88,11.88,0,0,1-2-1.4l-0.3-.25Zm3,0,0.3,0.25a2.94,2.94,0,0,0,1.9.82,2.28,2.28,0,0,0,1.61-1,2.31,2.31,0,0,0,.64-1.79A2.91,2.91,0,0,0,76.12,16l-0.3-.25Z"/><path id="_Compound_Path_18" data-name="&lt;Compound Path&gt;" class="cls-2" d="M77.16,25.92l6.75-5.21,3.19,4.14L85.62,26l-1.81-2.34-1.17.9,1.7,2.21L82.9,27.87l-1.7-2.21-1.14.88,1.81,2.34-1.51,1.17Z"/><path id="_Compound_Path_19" data-name="&lt;Compound Path&gt;" class="cls-2" d="M81.45,31.9l7.63-3.8,1,2.08-5.85,2.91,1.29,2.59-1.79.89Z"/><path id="_Compound_Path_20" data-name="&lt;Compound Path&gt;" class="cls-2" d="M90.5,45.58A4.34,4.34,0,0,1,87.12,45a4.64,4.64,0,0,1-1.27-1.24,4.64,4.64,0,0,1-.77-3.4,4.46,4.46,0,0,1,.62-1.65,4.32,4.32,0,0,1,1.19-1.29,4.51,4.51,0,0,1,3.36-.76,4.33,4.33,0,0,1,1.63.66,4.46,4.46,0,0,1,1.27,1.22,4.66,4.66,0,0,1,.77,3.41,4.5,4.5,0,0,1-.62,1.66A4.37,4.37,0,0,1,90.5,45.58Zm-3.45-3.89a2,2,0,0,0,1,1.4,2.84,2.84,0,0,0,3.49-.8,2.13,2.13,0,0,0-.7-3.11,2.89,2.89,0,0,0-3.51.78A2,2,0,0,0,87.05,41.69Z"/></g><g id="_Group_37" data-name="&lt;Group&gt;"><path id="_Compound_Path_21" data-name="&lt;Compound Path&gt;" class="cls-2" d="M28.37,90.25L26.59,89l1.69-3.31q0.18-.35.42-0.77t0.53-.9a10.52,10.52,0,0,1-1,.93l-0.2.16-3.23,2.62-1.27-.88,1.33-3.94,0.09-.24a9.3,9.3,0,0,1,.5-1.29l-0.61.74-0.63.71-2.52,2.74-1.77-1.23,5.95-6.25L27.7,79.4l-1.45,4.35,0,0.15a5.66,5.66,0,0,1-.39,1,4,4,0,0,1,.36-0.36L26.7,84l3.57-2.86,1.89,1.32Z"/><path id="_Compound_Path_22" data-name="&lt;Compound Path&gt;" class="cls-2" d="M32.88,92.13l2.78-8.07,4.95,1.7L40,87.53l-2.81-1L36.7,88l2.65,0.91-0.6,1.73-2.65-.91-0.47,1.36,2.81,1-0.62,1.81Z"/><path id="_Compound_Path_23" data-name="&lt;Compound Path&gt;" class="cls-2" d="M46.39,88.68v0a3,3,0,0,1,.22.7,2.72,2.72,0,0,1,.32-0.61l0-.06,1.19-1.89,2.75,0.23-3.19,3.85,2.77,4.68-2.63-.22-1.23-2.64a3,3,0,0,1-.14-0.36A2.59,2.59,0,0,1,46.4,92a3.16,3.16,0,0,1-.15.37,2.15,2.15,0,0,1-.19.31l-1.67,2.4-2.63-.22,3.53-4.19-2.51-4.28,2.76,0.23Z"/><path id="_Compound_Path_24" data-name="&lt;Compound Path&gt;" class="cls-2" d="M54.87,95.15l-1.12-8.46,2.33-.31,1.12,8.46Z"/><path id="_Compound_Path_25" data-name="&lt;Compound Path&gt;" class="cls-2" d="M65.62,83.93l0.85,2.39a3.52,3.52,0,0,0-1.16-.41,2.17,2.17,0,0,0-1,.11A2.08,2.08,0,0,0,63,87.21a2.56,2.56,0,0,0,0,1.89,2.4,2.4,0,0,0,1.17,1.39,2.1,2.1,0,0,0,1.74.1A2.17,2.17,0,0,0,66.77,90,3.45,3.45,0,0,0,67.41,89l0.85,2.4a5.58,5.58,0,0,1-.9.75,4.69,4.69,0,0,1-1,.5,4.83,4.83,0,0,1-1.27.28,3.73,3.73,0,0,1-1.19-.11,4.29,4.29,0,0,1-1.91-1,4.72,4.72,0,0,1-1.21-1.9,4.8,4.8,0,0,1-.3-1.79,4.35,4.35,0,0,1,.41-1.69,4,4,0,0,1,1-1.34,4.44,4.44,0,0,1,1.49-.86,4.59,4.59,0,0,1,1.09-.24A5.55,5.55,0,0,1,65.62,83.93Z"/><path id="_Compound_Path_26" data-name="&lt;Compound Path&gt;" class="cls-2" d="M77.48,81a4.33,4.33,0,0,1,.75,3.35A4.65,4.65,0,0,1,77.57,86a4.64,4.64,0,0,1-2.85,2A4.44,4.44,0,0,1,73,88a4.32,4.32,0,0,1-1.65-.6,4.51,4.51,0,0,1-2-2.81,4.33,4.33,0,0,1,0-1.75,4.46,4.46,0,0,1,.64-1.64,4.67,4.67,0,0,1,2.86-2,4.52,4.52,0,0,1,1.77-.07A4.37,4.37,0,0,1,77.48,81Zm-2.27,4.68a2,2,0,0,0,.89-1.5A2.85,2.85,0,0,0,74,81.22a2.13,2.13,0,0,0-2.6,1.84A2.89,2.89,0,0,0,73.49,86,2,2,0,0,0,75.21,85.64Z"/></g></g></svg>